<?xml version="1.0" standalone="no"?><!DOCTYPE svg PUBLIC "-//W3C//DTD SVG 1.1//EN" "http://www.w3.org/Graphics/SVG/1.1/DTD/svg11.dtd"><svg t="1525940049881" class="icon" style="" viewBox="0 0 1024 1024" version="1.1" xmlns="http://www.w3.org/2000/svg" p-id="2469" xmlns:xlink="http://www.w3.org/1999/xlink" width="200" height="200"><defs><style type="text/css"></style></defs><path d="M516.096 220.16c44.032 0 79.36 35.84 79.36 79.36 0 44.032-35.328 79.36-79.36 79.36s-79.36-35.328-79.36-79.36c0-43.52 35.328-79.36 79.36-79.36z m-328.192 393.216V747.52h-36.864v-114.688H143.36V747.52h-37.888v-232.96h-5.632v75.264H66.56V486.912c0-17.92 14.848-32.768 32.768-32.768H174.08c-1.024 4.608-1.536 9.728-1.536 14.336v144.896h15.36z m-40.448-271.36c29.184 0 52.736 23.552 52.736 52.736 0 11.776-4.096 22.528-10.24 31.232-2.048 2.048-3.584 3.584-5.12 5.632-9.728 9.728-22.528 15.36-37.376 15.36-29.184 0-52.736-23.552-52.736-52.736 0-28.672 23.552-52.224 52.736-52.224z m687.616 271.36V747.52h36.864v-114.688h7.68V747.52h37.888v-232.96h5.632v75.264h33.28V486.912c0-17.92-14.848-32.768-32.768-32.768h-74.752c1.024 4.608 1.536 9.728 1.536 14.336v144.896h-15.36z m40.448-271.36c-29.184 0-52.736 23.552-52.736 52.736 0 11.776 4.096 22.528 10.24 31.232 2.048 2.048 3.584 3.584 5.12 5.632 9.728 9.728 22.528 15.36 37.376 15.36 29.184 0 52.736-23.552 52.736-52.736 0-28.672-23.552-52.224-52.736-52.224z m-213.504 288.256v166.912h46.08v-142.848h9.728v142.848h47.104V506.88h7.168v94.208h41.984v-128c0-22.528-18.432-40.96-40.96-40.96h-93.184c1.536 5.632 2.048 11.776 2.048 17.92v180.736h-19.968v-0.512z m-76.288-36.352V480.256h-8.704v352.256h-55.808v-173.056h-11.776v173.056H452.608V480.256h-8.704V593.92h-50.688V438.784c0-27.648 22.528-49.664 49.664-49.664h144.384c27.648 0 49.664 22.528 49.664 49.664V593.92h-51.2z m-221.696 36.352v166.912h-46.08v-142.848h-9.728v142.848H261.12V506.88h-7.168v94.208h-41.984v-128c0-22.528 18.432-40.96 40.96-40.96h93.184c-1.536 5.632-2.048 11.776-2.048 17.92v180.736h19.968v-0.512zM313.856 291.84c36.352 0 65.536 29.184 65.536 65.536 0 14.848-4.608 28.16-12.8 38.912-2.048 2.048-4.096 4.608-6.144 7.168-11.776 11.776-28.16 18.944-46.08 18.944-36.352 0-65.536-29.184-65.536-65.536-1.024-35.328 28.672-65.024 65.024-65.024z m398.848 0c-36.352 0-65.536 29.184-65.536 65.536 0 14.848 4.608 28.16 12.8 38.912 2.048 2.048 4.096 4.608 6.144 7.168 11.776 11.776 28.16 18.944 46.08 18.944 36.352 0 65.536-29.184 65.536-65.536 0.512-35.328-28.672-65.024-65.024-65.024z" fill="#8a8a8a" p-id="2470"></path></svg>