<?xml version="1.0" standalone="no"?><!DOCTYPE svg PUBLIC "-//W3C//DTD SVG 1.1//EN" "http://www.w3.org/Graphics/SVG/1.1/DTD/svg11.dtd"><svg t="1525941058180" class="icon" style="" viewBox="0 0 1024 1024" version="1.1" xmlns="http://www.w3.org/2000/svg" p-id="5482" xmlns:xlink="http://www.w3.org/1999/xlink" width="200" height="200"><defs><style type="text/css"></style></defs><path d="M934.277593 28.738647h-857.846211a17.732017 17.732017 0 0 0-17.747992 17.732016c0 203.966116 95.848739 365.071871 220.372225 374.720644 33.706806 86.711159 81.599226 163.422099 149.38026 196.937209v71.215613h-59.154647v59.154646h-27.508588l-34.010327 272.162494h395.168375l-34.010328-272.162494h-27.508588v-59.154646h-59.154647v-71.215613c67.765058-33.515109 115.673453-110.22605 149.38026-196.937209 124.475562-9.648773 220.372225-170.754528 220.372225-374.720644a17.732017 17.732017 0 0 0-17.732017-17.732016zM94.466919 64.23463h108.468823c4.073571 48.323739 18.994025 189.141511 62.397529 318.968627-93.0851-20.926975-165.946116-154.65194-170.866352-318.968627z m410.887568 879.55595a59.186596 59.186596 0 0 1-59.170621-59.170621 59.122697 59.122697 0 0 1 59.170621-59.138672 59.106722 59.106722 0 0 1 59.138672 59.138672 59.170621 59.170621 0 0 1-59.138672 59.170621zM718.394284 146.488822c-17.061075 109.698881-42.860361 275.4533-128.261587 366.605451-3.514454 3.706151-8.227017 5.607151-12.955555 5.607151a17.747991 17.747991 0 0 1-12.971529-29.920781c77.956974-83.116831 103.72431-248.775401 119.092058-347.739224a17.732017 17.732017 0 1 1 35.096613 5.447403z m26.933496 236.714435c43.435453-129.811142 58.355907-270.644889 62.397528-318.968627h108.500773c-4.90426 164.316688-77.781251 298.041653-170.898301 318.968627z" fill="#bfbfbf" p-id="5483"></path><path d="M934.277593 0h-857.846211a17.732017 17.732017 0 0 0-17.747992 17.732017c0 203.966116 95.848739 365.071871 220.372225 374.720644 33.706806 86.711159 81.599226 163.422099 149.38026 196.937208v71.215613h-59.154647v59.154647h-27.508588l-34.010327 272.162493h395.168375l-34.010328-272.162493h-27.508588v-59.154647h-59.154647v-71.215613c67.765058-33.515109 115.673453-110.22605 149.38026-196.937208 124.475562-9.648773 220.372225-170.754528 220.372225-374.720644a17.732017 17.732017 0 0 0-17.732017-17.732017zM94.466919 35.511958h108.468823c4.073571 48.323739 18.994025 189.141511 62.397529 318.968627-93.0851-20.942949-165.946116-154.667915-170.866352-318.968627z m410.887568 879.524001a59.170621 59.170621 0 0 1-59.170621-59.154647 59.122697 59.122697 0 0 1 59.170621-59.138671 59.154647 59.154647 0 0 1 0 118.293318zM718.394284 117.76615c-17.061075 109.682907-42.860361 275.437325-128.261587 366.589476a17.763966 17.763966 0 0 1-25.927084-24.297655c77.956974-83.116831 103.72431-248.775401 119.092058-347.739224a17.87579 17.87579 0 0 1 20.272008-14.80863 17.732017 17.732017 0 0 1 14.824605 20.256033z m26.933496 236.698461c43.435453-129.811142 58.355907-270.644889 62.397528-318.968628h108.500773c-4.90426 164.316688-77.781251 298.041653-170.898301 318.968628z" fill="#bfbfbf" p-id="5484"></path></svg>